<svg width="96" height="96" viewBox="0 0 96 96" fill="none" xmlns="http://www.w3.org/2000/svg">
<g filter="url(#filter0_i_0_569)">
<rect width="96" height="96" rx="10" fill="#F2B137"/>
</g>
<path fill-rule="evenodd" clip-rule="evenodd" d="M68 44C68 32.9543 59.0457 24 48 24C36.9543 24 28 32.9543 28 44C28 55.0457 36.9543 64 48 64C59.0457 64 68 55.0457 68 44ZM39.8519 44C39.8519 39.4999 43.4999 35.8519 48 35.8519C52.5001 35.8519 56.1481 39.4999 56.1481 44C56.1481 48.5001 52.5001 52.1481 48 52.1481C43.4999 52.1481 39.8519 48.5001 39.8519 44Z" fill="#1F3641"/>
<defs>
<filter id="filter0_i_0_569" x="0" y="0" width="96" height="96" filterUnits="userSpaceOnUse" color-interpolation-filters="sRGB">
<feFlood flood-opacity="0" result="BackgroundImageFix"/>
<feBlend mode="normal" in="SourceGraphic" in2="BackgroundImageFix" result="shape"/>
<feColorMatrix in="SourceAlpha" type="matrix" values="0 0 0 0 0 0 0 0 0 0 0 0 0 0 0 0 0 0 127 0" result="hardAlpha"/>
<feOffset dy="-8"/>
<feComposite in2="hardAlpha" operator="arithmetic" k2="-1" k3="1"/>
<feColorMatrix type="matrix" values="0 0 0 0 0.8 0 0 0 0 0.545098 0 0 0 0 0.0745098 0 0 0 1 0"/>
<feBlend mode="normal" in2="shape" result="effect1_innerShadow_0_569"/>
</filter>
</defs>
</svg>
